# xmcd
#
# Track frame offsets: 
#        150
#        16083
#        26225
#        37128
#        42892
#        51988
#        68524
#        85942
#        117767
#        132468
#        145630
#        157195
#        166905
#        181938
#        191206
#        204156
#        217002
#        225700
#        234182
#        242728
#        252581
#        262203
#        270810
#        277046
#        292022
#        306150
#        316019
#        326650
#        336915
#        349749
#        360821
#        370426
#        379550
#
# Disc length: 5252 seconds
#
# Revision: 0
# Processed by: cddbd v1.5.2PL0 Copyright (c) Steve Scherf et al.
# Submitted via: ExactAudioCopy v0.99pb4
#
DISCID=f3148221
DTITLE=The Dixon Brothers - A Blessing To People - Disc 4
DYEAR=2012
DGENRE=Country
TTITLE0=Babies In The Mill
TTITLE1=The Factory Girl
TTITLE2=Hard Times In Here
TTITLE3=Weave Room Blues
TTITLE4=Twister Room Blues
TTITLE5=When Weaving Time Is Over
TTITLE6=The Wreck Of The Old 97
TTITLE7=The Cleveland School House Fire
TTITLE8=Wreck On The Highway
TTITLE9=Naomi Wise
TTITLE10=Our Johnny
TTITLE11=Mommy, Will My Doggie Understand?
TTITLE12=Bill Dodson's Last Run
TTITLE13=The Great Convoy
TTITLE14=Jesse James
TTITLE15=Give Me My Flowers While I'm Living
TTITLE16=Be At Home Soon Tonight, My Dear Boy
TTITLE17=Tomorrow
TTITLE18=The Worried Bum
TTITLE19=She Tickled Me
TTITLE20=Timothy Kelly
TTITLE21=The Burglar Man
TTITLE22=The Christmas Cake
TTITLE23=The Hungry Hash House
TTITLE24=I'm Not Turning Backward
TTITLE25=Somebody Touched Me
TTITLE26=Across The Shining River
TTITLE27=My Name In The Book
TTITLE28=When That Beautiful City Comes Down
TTITLE29=Will The Circle Be Unbroken
TTITLE30=I Shall Not Be Moved
TTITLE31=I Didn't Have A Friend
TTITLE32=The Church At The Foot Of The Hill
EXTD=
EXTT0=
EXTT1=
EXTT2=
EXTT3=
EXTT4=
EXTT5=
EXTT6=
EXTT7=
EXTT8=
EXTT9=
EXTT10=
EXTT11=
EXTT12=
EXTT13=
EXTT14=
EXTT15=
EXTT16=
EXTT17=
EXTT18=
EXTT19=
EXTT20=
EXTT21=
EXTT22=
EXTT23=
EXTT24=
EXTT25=
EXTT26=
EXTT27=
EXTT28=
EXTT29=
EXTT30=
EXTT31=
EXTT32=
PLAYORDER=
